	<svg width="62" height="62" viewBox="0 0 62 62" fill="none" xmlns="http://www.w3.org/2000/svg">
<g filter="url(#filter0_d)">
<circle cx="31" cy="30" r="25" fill="white"/>
<circle cx="31" cy="30" r="24.5" stroke="#D6D6D6"/>
</g>
<path d="M31.0035 16H30.9965C23.2773 16 17 22.279 17 30C17 33.0625 17.987 35.901 19.6653 38.2057L17.9205 43.4067L23.3018 41.6865C25.5155 43.153 28.1562 44 31.0035 44C38.7227 44 45 37.7192 45 30C45 22.2808 38.7227 16 31.0035 16ZM39.1497 35.7698C38.812 36.7235 37.4715 37.5145 36.4023 37.7455C35.6707 37.9012 34.7153 38.0255 31.4987 36.692C27.3845 34.9875 24.735 30.8067 24.5285 30.5355C24.3307 30.2642 22.866 28.3218 22.866 26.3127C22.866 24.3038 23.8863 23.3255 24.2975 22.9055C24.6353 22.5608 25.1935 22.4032 25.729 22.4032C25.9023 22.4032 26.058 22.412 26.198 22.419C26.6093 22.4365 26.8158 22.461 27.087 23.1103C27.4248 23.924 28.2472 25.933 28.3452 26.1395C28.445 26.346 28.5448 26.626 28.4048 26.8973C28.2735 27.1773 28.158 27.3015 27.9515 27.5395C27.745 27.7775 27.549 27.9595 27.3425 28.215C27.1535 28.4373 26.94 28.6753 27.178 29.0865C27.416 29.489 28.2385 30.8312 29.4495 31.9092C31.0122 33.3005 32.2792 33.745 32.7325 33.934C33.0702 34.074 33.4727 34.0408 33.7195 33.7783C34.0327 33.4405 34.4195 32.8805 34.8132 32.3293C35.0933 31.9338 35.4468 31.8847 35.8178 32.0247C36.1958 32.156 38.196 33.1447 38.6073 33.3495C39.0185 33.556 39.2897 33.654 39.3895 33.8273C39.4875 34.0005 39.4875 34.8142 39.1497 35.7698Z" fill="#D6D6D6"/>
<defs>
<filter id="filter0_d" x="0" y="0" width="62" height="62" filterUnits="userSpaceOnUse" color-interpolation-filters="sRGB">
<feFlood flood-opacity="0" result="BackgroundImageFix"/>
<feColorMatrix in="SourceAlpha" type="matrix" values="0 0 0 0 0 0 0 0 0 0 0 0 0 0 0 0 0 0 127 0"/>
<feOffset dy="1"/>
<feGaussianBlur stdDeviation="3"/>
<feColorMatrix type="matrix" values="0 0 0 0 0 0 0 0 0 0 0 0 0 0 0 0 0 0 0.15 0"/>
<feBlend mode="normal" in2="BackgroundImageFix" result="effect1_dropShadow"/>
<feBlend mode="normal" in="SourceGraphic" in2="effect1_dropShadow" result="shape"/>
</filter>
</defs>
</svg>